<svg width="100" height="100" viewBox="0 0 100 100" fill="none" xmlns="http://www.w3.org/2000/svg">
<rect x="0.5" y="0.5" width="99" height="99" rx="15.5" fill="url(#paint0_radial_2022_119)"/>
<rect x="0.5" y="0.5" width="99" height="99" rx="15.5" stroke="url(#paint1_linear_2022_119)"/>
<path d="M39.6667 40.1667L27.3334 52.3333L20.3334 45.5L16.6667 49.1667L27.3334 59.8333L43.3334 43.8333L39.6667 40.1667ZM39.6667 18.5L27.3334 30.6667L20.3334 23.8333L16.6667 27.5L27.3334 38.1667L43.3334 22.1667L39.6667 18.5ZM39.6667 61.8333L27.3334 74L20.3334 67.1667L16.6667 70.8333L27.3334 81.5L43.3334 65.5L39.6667 61.8333Z" fill="#3F51B5"/>
<path d="M50 46.6667H83.3333V53.3333H50V46.6667ZM50 25H83.3333V31.6667H50V25ZM50 68.3333H83.3333V75H50V68.3333Z" fill="#90CAF9"/>
<defs>
<radialGradient id="paint0_radial_2022_119" cx="0" cy="0" r="1" gradientUnits="userSpaceOnUse" gradientTransform="translate(50) rotate(90) scale(100)">
<stop stop-color="white"/>
<stop offset="1" stop-color="#EEEEEE"/>
</radialGradient>
<linearGradient id="paint1_linear_2022_119" x1="0" y1="0" x2="100" y2="100" gradientUnits="userSpaceOnUse">
<stop stop-opacity="0.08"/>
<stop offset="1" stop-opacity="0.24"/>
</linearGradient>
</defs>
</svg>
